<?xml version="1.0" standalone="no"?><!DOCTYPE svg PUBLIC "-//W3C//DTD SVG 1.1//EN" "http://www.w3.org/Graphics/SVG/1.1/DTD/svg11.dtd">
<svg t="1599189287429" class="icon" viewBox="0 0 1024 1024" version="1.1" xmlns="http://www.w3.org/2000/svg" p-id="8232"
     width="40" height="40"><defs><style type="text/css"></style></defs><path d="M170.154667 130.56l301.696 301.696-120.661334 120.661333-181.034666-180.992a170.666667 170.666667 0 0 1 0-241.365333zM757.504 166.698667L635.264 316.16a23.552 23.552 0 0 0 33.152 33.194667l149.418667-122.282667 30.165333 30.165333-122.24 149.461334a23.552 23.552 0 0 0 33.152 33.152l149.418667-122.24 30.208 30.165333-135.765334 135.765333a149.333333 149.333333 0 1 1-211.2-211.2L727.338667 136.533333l30.165333 30.165334z" fill="#13227a" p-id="8233"></path><path d="M472.533333 594.133333c16.938667 16.896 17.621333 44.074667 1.578667 61.824l-212.053333 234.581334a60.842667 60.842667 0 1 1-85.930667-85.930667l234.581333-212.053333a44.885333 44.885333 0 0 1 61.866667 1.578666zM557.866667 594.133333a44.885333 44.885333 0 0 1 61.866666-1.578666l234.581334 212.053333a60.842667 60.842667 0 1 1-85.930667 85.930667l-212.053333-234.581334a44.885333 44.885333 0 0 1 1.536-61.866666z" fill="#13227a" opacity=".3" p-id="8234"></path></svg>